<?xml version="1.0" encoding="utf-8"?>
<!-- Generator: Adobe Illustrator 16.0.0, SVG Export Plug-In . SVG Version: 6.00 Build 0)  -->
<!DOCTYPE svg PUBLIC "-//W3C//DTD SVG 1.1//EN" "http://www.w3.org/Graphics/SVG/1.1/DTD/svg11.dtd">
<svg version="1.1" id="Layer_1" xmlns="http://www.w3.org/2000/svg" xmlns:xlink="http://www.w3.org/1999/xlink" x="0px" y="0px"
	 width="419.531px" height="312px" viewBox="0 141.14 419.531 312" enable-background="new 0 141.14 419.531 312"
	 xml:space="preserve">
<path fill="#037B84" d="M323.875,163.904l31.941,161.616c0.958,4.79-2.236,9.262-6.708,10.219L47.598,398.982
	c-4.792,0.957-9.263-2.238-10.221-6.708L5.437,230.338c-0.958-4.791,2.236-9.262,6.708-10.22l301.512-62.92
	C318.446,156.239,322.918,159.114,323.875,163.904z"/>
<path fill="#B2B7B6" d="M263.51,334.144l71.864-14.694c2.236-0.318,3.832-2.874,3.514-5.109l-27.149-136.703
	c-0.319-2.236-2.875-3.833-5.11-3.513l-71.864,14.692c-2.235,0.319-3.833,2.875-3.513,5.11c0.319,2.236,2.875,3.833,5.11,3.514
	l67.711-13.734l25.552,128.078l-67.711,13.734c-2.235,0.319-3.833,2.874-3.513,5.11C259.039,332.866,261.275,334.463,263.51,334.144
	z"/>
<path fill="#1394A5" d="M374.021,205.106l15.969,164.169c0.321,4.794-2.873,8.943-7.665,9.583L60.372,418.145
	c-4.79,0.318-8.943-2.875-9.262-7.666l-15.97-164.17c-0.32-4.792,2.875-8.944,7.665-9.582l321.954-39.286
	C369.231,197.121,373.703,200.635,374.021,205.106z"/>
<path fill="#DCE0DF" d="M370.189,361.293c2.235-0.32,4.152-2.235,3.831-4.792l-13.413-138.619c-0.32-2.236-2.235-4.152-4.792-3.833
	l-73.141,7.346c-2.236,0.32-4.153,2.236-3.833,4.791c0.319,2.236,2.235,4.152,4.791,3.833l68.671-6.708l12.456,129.995l-68.67,6.708
	c-2.236,0.319-4.153,2.235-3.834,4.791c0.32,2.235,2.236,4.151,4.791,3.832L370.189,361.293z"/>
<path fill="#43B6CC" d="M414.265,261.639l0.001,167.685c0,4.791-3.833,8.943-8.943,8.943H71.552c-4.792,0-8.943-3.833-8.944-8.943
	l0-167.685c0-4.791,3.832-8.943,8.943-8.943h333.771C410.433,252.698,414.265,256.53,414.265,261.639z"/>
<path fill="#FFFFFF" d="M238.598,281.443c-35.454,0-63.88,28.746-63.88,63.88c0,35.132,28.746,63.878,63.88,63.878
	c35.133,0,63.878-28.746,63.878-63.878C302.476,310.188,273.731,281.442,238.598,281.443z M142.778,417.187
	c0-2.556-2.236-4.793-4.792-4.793H88.479l0-134.146h49.507c2.555,0,4.791-2.236,4.792-4.792c0-2.556-2.236-4.791-4.791-4.792
	l-54.298,0c-2.556,0-4.792,2.235-4.792,4.792l0,143.729c0,2.556,2.236,4.792,4.792,4.792h54.298
	C140.543,421.978,142.778,419.743,142.778,417.187z M398.296,417.187V273.458c0-2.555-2.236-4.791-4.792-4.791l-54.297,0
	c-2.556,0-4.792,2.236-4.792,4.792c0,2.555,2.236,4.791,4.792,4.791l49.507,0l-0.001,134.146l-49.506,0.001
	c-2.556,0-4.792,2.234-4.792,4.791c0,2.556,2.236,4.79,4.791,4.791h54.298C396.06,421.978,398.296,419.743,398.296,417.187z
	 M130.002,335.741c-5.43,0-9.583,4.152-9.582,9.581c0,5.429,4.153,9.581,9.582,9.582c5.429,0,9.582-4.152,9.582-9.581
	C139.584,339.892,135.112,335.741,130.002,335.741z M347.193,354.904c5.429-0.001,9.581-4.152,9.581-9.581
	c0-5.43-4.152-9.582-9.581-9.582c-5.43-0.001-9.583,4.152-9.584,9.582C337.609,350.752,341.763,354.904,347.193,354.904z"/>
<g>
	<path fill="#43B6CC" d="M260.143,331.6h-8.891c-0.516-2.212-1.396-4.276-2.574-6.046h11.465c2.483,0,4.497-2.014,4.497-4.496
		c0-2.484-2.015-4.497-4.497-4.497h-36.494c-2.482,0-4.495,2.013-4.495,4.497c0,2.482,2.013,4.496,4.495,4.496h8.595
		c4.202,0,7.834,2.507,9.526,6.047h-18.121c-2.482,0-4.495,2.012-4.495,4.496c0,2.483,2.013,4.496,4.495,4.496h18.135
		c-1.687,3.539-5.328,6.045-9.54,6.045h-8.595c-2.482,0-4.495,1.939-4.495,4.422c0,1.31,0.561,2.451,1.452,3.271l24.167,26.699
		c0.889,0.981,2.109,1.471,3.336,1.471c1.075,0,2.155-0.387,3.016-1.166c1.842-1.666,1.983-4.513,0.317-6.354L233.752,355.5
		c8.558-0.661,15.588-6.944,17.508-14.906h8.883c2.482,0,4.496-2.013,4.496-4.496C264.639,333.613,262.625,331.6,260.143,331.6z"/>
	<g>
		<path fill="#43B6CC" d="M261.838,317.978c-0.009,2.491-2.096,4.481-4.587,4.481h-7.617c-1.621,0-2.714,1.641-2.103,3.144
			c0.17,0.415,0.325,0.84,0.466,1.271c0.315,0.966,1.202,1.627,2.218,1.627h0.037c-0.44-1.046-0.968-2.035-1.574-2.948h11.37
			c2.457,0,4.533-1.931,4.59-4.388c0.047-1.984-1.192-3.685-2.94-4.329C261.791,317.201,261.839,317.584,261.838,317.978z"/>
		<path fill="#43B6CC" d="M223.649,325.554h8.595c2.344,0,4.508,0.779,6.259,2.084c-1.841-3.075-5.212-5.179-9.06-5.179h-8.593
			c-0.546,0-1.068-0.099-1.553-0.276C219.796,324.123,221.555,325.554,223.649,325.554z"/>
		<path fill="#43B6CC" d="M261.698,331.876c0.093,0.364,0.142,0.747,0.141,1.141c-0.009,2.493-2.096,4.48-4.587,4.48h-6.707
			c-1.187,0-2.244,0.748-2.641,1.865c-2.493,7.062-9.076,12.433-16.953,13.042l2.811,3.095c8.554-0.665,15.58-6.946,17.499-14.905
			h8.788c2.457,0,4.533-1.933,4.59-4.39C264.685,334.22,263.446,332.52,261.698,331.876z"/>
		<path fill="#43B6CC" d="M248.801,372.073c1.494,1.843,1.302,4.555-0.478,6.167c-0.861,0.777-1.94,1.166-3.016,1.166
			c-1.228,0-2.45-0.489-3.337-1.471l2.802,3.096c0.889,0.981,2.109,1.471,3.337,1.471c1.074,0,2.154-0.387,3.015-1.166
			c1.842-1.666,1.983-4.513,0.318-6.354L248.801,372.073z"/>
		<path fill="#43B6CC" d="M236.766,340.566c1.153-1.111,0.342-3.069-1.26-3.069H220.85c-0.546,0-1.068-0.097-1.553-0.276
			c0.499,1.939,2.258,3.373,4.352,3.373h13.09C236.749,340.585,236.756,340.576,236.766,340.566z"/>
	</g>
</g>
</svg>
