<?xml version="1.0" encoding="utf-8"?>
<!-- Generator: Adobe Illustrator 16.0.0, SVG Export Plug-In . SVG Version: 6.00 Build 0)  -->
<!DOCTYPE svg PUBLIC "-//W3C//DTD SVG 1.1//EN" "http://www.w3.org/Graphics/SVG/1.1/DTD/svg11.dtd">
<svg version="1.1" id="Capa_1" xmlns="http://www.w3.org/2000/svg" xmlns:xlink="http://www.w3.org/1999/xlink" x="0px" y="0px"
	 width="512px" height="512px" viewBox="0 0 512 512" enable-background="new 0 0 512 512" xml:space="preserve">
<g>
	<g>
		<path fill="#46B6CC" d="M435.374,341.123l-176.354,30.67l-50.092-50.091c-1.663-1.672-3.921-2.605-6.287-2.605h-88.925
			c0-4.918-3.975-8.893-8.892-8.893h-35.57H7.007v17.785h53.354v124.494H7.007v17.785h62.247h35.57c4.917,0,8.892-3.976,8.892-8.893
			h24.579l95.069,47.539c4.108,2.054,8.563,3.086,13.001,3.086c5.06,0,10.11-1.325,14.637-3.967L454.999,394.86
			c8.893-5.185,14.415-14.797,14.415-25.095c0-8.599-3.779-16.709-10.359-22.249C452.492,341.976,443.821,339.656,435.374,341.123z
			 M95.932,452.483H78.147V327.989h17.785V452.483z M446.036,379.494L252.047,492.668c-3.29,1.921-7.301,2.046-10.724,0.338
			l-96.946-48.473c-1.236-0.622-2.605-0.942-3.983-0.942h-26.678V336.882h85.243l70.064,70.063
			c3.023,3.023,4.757,7.212,4.757,11.498c0,8.963-7.292,16.255-16.255,16.255c-4.278,0-8.475-1.733-11.498-4.757l-45.992-45.992
			l-12.574,12.574l45.992,45.991c6.429,6.43,14.975,9.969,24.072,9.969c18.763,0,34.04-15.277,34.04-34.04
			c0-9.089-3.539-17.643-9.969-24.072l-7.202-7.203l164.012-28.526c3.299-0.596,6.643,0.329,9.194,2.48
			c2.562,2.152,4.028,5.3,4.028,8.635C451.629,373.749,449.486,377.484,446.036,379.494z"/>
		<path fill="#46B6CC" d="M504.983,61.216V43.43h-55.853c-1.619-1.681-3.868,0-6.395,0h-35.569c-4.918,0-8.893,0-8.893,8.893
			h-24.578L278.617,3.415c-8.812-4.411-19.145-4.758-27.628,0.195L56.992,116.437c-8.893,5.185-14.415,14.629-14.415,24.926
			c0,8.599,3.779,16.611,10.351,22.151c5.291,4.446,11.898,6.785,18.692,6.785c1.672,0,3.335-0.169,4.998-0.454l176.346-30.679
			l50.091,51.461c1.672,1.662,3.93,3.975,6.296,3.975h88.924c0,0,3.975,8.893,8.893,8.893h29.176c1.619,0,3.868,0,6.394,0h62.247
			V185.71h-53.354V61.216H504.983z M313.031,176.817l-70.054-71.424c-3.077-3.077-4.767-7.853-4.767-12.191
			c0-8.973,7.292-16.611,16.255-16.611c4.34,0,8.421,1.521,11.498,4.598l45.992,45.894l12.573-12.618l-45.982-45.992
			c-6.43-6.446-14.984-9.995-24.081-9.995c-18.763,0-34.04,15.269-34.04,34.041c0,9.079,3.53,17.624,9.968,24.071l7.194,7.194
			L73.576,152.309c-3.326,0.578-6.643-0.338-9.204-2.48c-2.543-2.152-4.011-5.3-4.011-8.635c0-4.002,2.143-7.736,5.593-9.746
			L259.943,18.283c3.291-1.912,7.301-2.045,10.725-0.338l96.945,49.851c1.236,0.614,2.605,2.313,3.984,2.313h26.677v106.709H313.031
			z M416.06,61.216h17.785V185.71H416.06V61.216z"/>
		<path fill="#46B6CC" d="M152.808,187.177l-14.744-9.951c-3.539,5.247-6.758,10.76-9.542,16.371l15.926,7.923
			C146.876,196.603,149.695,191.783,152.808,187.177z"/>
		<path fill="#46B6CC" d="M116.695,285.972c1.298,6.206,3.015,12.36,5.104,18.256l16.762-5.923
			c-1.823-5.157-3.326-10.537-4.464-15.979L116.695,285.972z"/>
		<path fill="#46B6CC" d="M116.357,229.443l17.456,3.405c1.058-5.424,2.49-10.813,4.259-16.024l-16.851-5.718
			C119.203,217.064,117.576,223.236,116.357,229.443z"/>
		<path fill="#46B6CC" d="M113.716,256.876c0.009,3.459,0.134,6.892,0.374,10.298l17.731-1.254c-0.204-2.997-0.311-6.038-0.32-9.07
			c0-2.525,0.071-5.033,0.222-7.532l-17.749-1.094C113.806,251.087,113.716,253.959,113.716,256.876z"/>
		<path fill="#46B6CC" d="M373.411,215.357c1.85,5.237,3.344,10.608,4.455,15.971l17.421-3.61
			c-1.281-6.136-2.997-12.28-5.096-18.265L373.411,215.357z"/>
		<path fill="#46B6CC" d="M359.192,326.486l14.726,9.969c3.539-5.238,6.768-10.742,9.56-16.38l-15.927-7.924
			C365.114,317.087,362.296,321.906,359.192,326.486z"/>
		<path fill="#46B6CC" d="M373.927,296.856l16.852,5.718c2.027-5.958,3.654-12.12,4.873-18.336l-17.456-3.406
			C377.128,286.265,375.696,291.645,373.927,296.856z"/>
		<path fill="#46B6CC" d="M398.274,256.876c0.009-3.494-0.124-6.963-0.373-10.404l-17.731,1.299
			c0.213,2.987,0.329,6.011,0.319,9.079c0,2.517-0.07,5.016-0.222,7.505l17.749,1.094
			C398.186,262.594,398.274,259.73,398.274,256.876z"/>
		<g>
			<path fill="#46B6CC" stroke="#43B6CC" stroke-width="3" stroke-miterlimit="10" d="M301.459,201.58
				c-16.397-16.703-41.349-1.133-44.874,1.213c-12.337-7.26-29.292-13.246-41.876-2.237c-9.048,7.902-13.903,17.645-14.449,28.95
				c-0.819,17.031,8.676,32.874,13.4,37.875c2.396,2.534,4.044,15.548,5.251,25.052c2.565,20.229,4.783,37.705,15.317,39.207
				c2.691,0.392,5.197-0.249,7.256-1.828c5.341-4.107,6.473-13.573,7.78-24.531c1.679-14.104,3.369-24.887,9.603-24.874
				c1.881,0.003,2.718,0.635,3.232,1.181c3.41,3.607,2.808,15.05,2.362,23.406c-0.636,12.126-1.188,22.601,6.885,24.376
				c0.734,0.154,1.618,0.259,2.619,0.19c1.597-0.107,3.482-0.643,5.493-2.052c11.67-8.138,19.109-40.358,21.658-57.669
				c9.169-8.178,14.741-19.61,15.362-31.606C316.951,228.98,314.732,215.113,301.459,201.58z M307.861,237.791
				c-0.52,10.149-5.458,19.816-13.54,26.517c-0.833,0.692-1.378,1.669-1.525,2.74c-3.388,24.774-11.583,48.728-18.273,53.39
				c-0.298,0.206-0.679,0.434-1.015,0.502c-1.136-2.206-0.694-10.471-0.431-15.5c0.613-11.548,1.24-23.487-4.71-29.781
				c-2.386-2.529-5.663-3.87-9.473-3.88c-0.387-0.004-0.77,0.01-1.145,0.035c-13.294,0.896-15.376,18.352-17.057,32.447
				c-0.847,7.095-2.006,16.819-4.467,18.712c-0.122,0.096-0.263,0.207-0.78,0.128c-4.02-0.567-6.794-22.421-7.979-31.75
				c-1.989-15.687-3.42-25.524-7.54-29.886c-3.19-3.381-11.743-17.143-11.051-31.539c0.427-8.878,4.295-16.575,11.504-22.879
				c15.937-13.947,46.162,13.605,46.467,13.889c1.752,1.611,4.482,1.504,6.096-0.242c1.617-1.75,1.511-4.476-0.238-6.095
				c-0.413-0.383-3.456-3.163-8.106-6.541c6.676-3.625,21.438-9.876,30.699-0.443C304.073,216.564,308.414,226.997,307.861,237.791z
				"/>
		</g>
	</g>
</g>
</svg>
