<?xml version="1.0" encoding="utf-8"?>
<!-- Generator: Adobe Illustrator 16.0.0, SVG Export Plug-In . SVG Version: 6.00 Build 0)  -->
<!DOCTYPE svg PUBLIC "-//W3C//DTD SVG 1.1//EN" "http://www.w3.org/Graphics/SVG/1.1/DTD/svg11.dtd">
<svg version="1.1" id="Layer_1" xmlns="http://www.w3.org/2000/svg" xmlns:xlink="http://www.w3.org/1999/xlink" x="0px" y="0px"
	 width="419.531px" height="466px" viewBox="0 68.14 419.531 466" enable-background="new 0 68.14 419.531 466"
	 xml:space="preserve">
<path fill="#43B6CC" d="M350.949,141.941v-0.029h-1.133h-78.563c-6.533,0-199.025,0-201.54,0c-12.58,0-22.815,10.234-22.815,22.815
	v319.863c0,12.58,10.234,22.814,22.815,22.814h280.102c12.578,0,22.813-10.233,22.813-22.814c0-14.041,0-305.995,0-319.863
	C372.63,152.527,363.003,142.534,350.949,141.941z"/>
<path fill="#43B6CC" d="M350.949,141.941v-0.029h-1.133h-78.563h-65.152c-12.585,112.211,60.602,213.32,166.526,239.416
	c0-3.833,0-211.499,0-216.601C372.63,152.527,363.003,142.534,350.949,141.941z"/>
<path fill="#D9EFF9" d="M347.281,471.926c0,5.596-4.537,10.131-10.131,10.131H82.381c-5.595,0-10.13-4.536-10.13-10.131V177.392
	c0-5.597,4.536-10.129,10.13-10.129h254.77c5.596,0,10.131,4.533,10.131,10.129V471.926L347.281,471.926z"/>
<path fill="#43B6CC" d="M261.115,129.239h-18.332v-8.327c0-18.233-14.783-33.018-33.018-33.018
	c-18.234,0-33.018,14.783-33.018,33.018v8.327h-18.33c-5.602,0-10.14,4.538-10.14,10.14v27.882c0,5.6,4.54,10.14,10.14,10.14
	h102.696c5.602,0,10.141-4.541,10.141-10.14v-27.882C271.255,133.777,266.715,129.239,261.115,129.239z M209.765,131.462
	c-5.717,0-10.352-4.633-10.352-10.352c0-5.717,4.635-10.35,10.352-10.35s10.352,4.634,10.352,10.35
	C220.117,126.828,215.482,131.462,209.765,131.462z"/>
<path fill="#43B6CC" d="M165.161,167.26v-27.883c0-5.602,4.54-10.14,10.14-10.14h-16.884c-5.602,0-10.14,4.538-10.14,10.14v27.881
	c0,5.601,4.54,10.141,10.14,10.141h16.884C169.701,177.4,165.161,172.859,165.161,167.26z"/>
<path fill="#43B6CC" d="M245.221,216.511c-10.884-7.779-24.396-6.852-35.456,0.487c-29.884-19.826-58.958,11.763-45.477,45.259
	c3.429,8.517,9.023,15.367,15.624,19.943c-3.821,29.495,14.942,57.314,15.222,30.394c0.137-8.49,2.151-17.933,10.246-20.351
	c0.001,0,0.003-0.003,0.003-0.003c2.934-0.881,5.75-0.904,8.762,0l0.002,0.003c4.33,1.268,8.517,5.115,9.889,15.134
	c0.416,3.1,0.352,6.062,0.381,7.288c0.609,23.072,19.055-2.691,15.2-32.464C261.848,266.792,265.516,231.422,245.221,216.511z"/>
<g>
	<path fill="#43B6CC" d="M314.714,362.65h-179.14c-3.498,0-6.333-2.834-6.333-6.332c0-3.497,2.834-6.332,6.333-6.332h179.14
		c3.496,0,6.332,2.835,6.332,6.332C321.046,359.816,318.21,362.65,314.714,362.65z"/>
	<path fill="#43B6CC" d="M314.714,393.491h-179.14c-3.498,0-6.333-2.834-6.333-6.331c0-3.498,2.834-6.331,6.333-6.331h179.14
		c3.496,0,6.332,2.834,6.332,6.331S318.21,393.491,314.714,393.491z"/>
	<path fill="#43B6CC" d="M314.714,424.335h-179.14c-3.498,0-6.333-2.835-6.333-6.333s2.834-6.331,6.333-6.331h179.14
		c3.496,0,6.332,2.834,6.332,6.331C321.046,421.5,318.21,424.335,314.714,424.335z"/>
	<path fill="#43B6CC" d="M314.714,455.177h-179.14c-3.498,0-6.333-2.834-6.333-6.331c0-3.498,2.834-6.332,6.333-6.332h179.14
		c3.496,0,6.332,2.834,6.332,6.332C321.046,452.344,318.21,455.177,314.714,455.177z"/>
	<path fill="#43B6CC" d="M114.45,362.65h-8.449c-3.497,0-6.332-2.834-6.332-6.332c0-3.497,2.834-6.332,6.332-6.332h8.449
		c3.498,0,6.333,2.835,6.333,6.332C120.782,359.816,117.948,362.65,114.45,362.65z"/>
	<path fill="#43B6CC" d="M114.45,393.491h-8.449c-3.497,0-6.332-2.834-6.332-6.331c0-3.498,2.834-6.331,6.332-6.331h8.449
		c3.498,0,6.333,2.834,6.333,6.331S117.948,393.491,114.45,393.491z"/>
	<path fill="#43B6CC" d="M114.45,424.335h-8.449c-3.497,0-6.332-2.835-6.332-6.333s2.834-6.331,6.332-6.331h8.449
		c3.498,0,6.333,2.834,6.333,6.331C120.782,421.5,117.948,424.335,114.45,424.335z"/>
	<path fill="#43B6CC" d="M114.45,455.177h-8.449c-3.497,0-6.332-2.834-6.332-6.331c0-3.498,2.834-6.332,6.332-6.332h8.449
		c3.498,0,6.333,2.834,6.333,6.332C120.782,452.344,117.948,455.177,114.45,455.177z"/>
</g>
<path fill="#43B6CC" d="M176.748,120.912v8.327h9.161c6.297,0,7.517-5.1,7.723-7.787c0-1.02,0.02-1.615,0.02-1.615l0.003,0.004
	c0.473-14.842,10.74-27.211,24.553-30.853C197.226,83.447,176.748,99.303,176.748,120.912z"/>
</svg>
