<?xml version="1.0" encoding="utf-8"?>
<!-- Generator: Adobe Illustrator 16.0.0, SVG Export Plug-In . SVG Version: 6.00 Build 0)  -->
<!DOCTYPE svg PUBLIC "-//W3C//DTD SVG 1.1//EN" "http://www.w3.org/Graphics/SVG/1.1/DTD/svg11.dtd">
<svg version="1.1" id="Capa_1" xmlns="http://www.w3.org/2000/svg" xmlns:xlink="http://www.w3.org/1999/xlink" x="0px" y="0px"
	 width="419.531px" height="450px" viewBox="0 74.14 419.531 450" enable-background="new 0 74.14 419.531 450"
	 xml:space="preserve">
<g>
	<path fill="#43B6CC" stroke="#43B6CC" stroke-width="7" stroke-miterlimit="10" d="M283.667,216.731
		c-7.157,0-12.979,5.823-12.979,12.979c0,7.158,5.822,12.98,12.979,12.98c7.158,0,12.981-5.822,12.981-12.98
		C296.648,222.554,290.825,216.731,283.667,216.731z M283.667,235.525c-3.206,0-5.813-2.608-5.813-5.814
		c0-3.205,2.607-5.813,5.813-5.813c3.207,0,5.813,2.607,5.813,5.813C289.48,232.917,286.872,235.525,283.667,235.525z"/>
	<path fill="#43B6CC" stroke="#43B6CC" stroke-width="7" stroke-miterlimit="10" d="M140.388,216.731
		c-7.156,0-12.979,5.823-12.979,12.979c0,7.158,5.823,12.98,12.979,12.98c7.157,0,12.98-5.822,12.98-12.98
		C153.368,222.554,147.545,216.731,140.388,216.731z M140.388,235.525c-3.205,0-5.813-2.608-5.813-5.814
		c0-3.205,2.606-5.813,5.813-5.813c3.206,0,5.813,2.607,5.813,5.813C146.202,232.917,143.594,235.525,140.388,235.525z"/>
	<path fill="#43B6CC" stroke="#43B6CC" stroke-width="7" stroke-miterlimit="10" d="M270.131,275.749
		c-1.4-1.399-3.669-1.399-5.066,0c-20.688,20.688-37.045,29.913-53.035,29.913s-32.347-9.225-53.034-29.913
		c-1.4-1.399-3.669-1.399-5.068,0c-1.4,1.399-1.4,3.668,0,5.067c22.139,22.139,40.059,32.012,58.103,32.012l0,0
		c18.043,0,35.964-9.874,58.103-32.012C271.531,279.417,271.531,277.148,270.131,275.749z"/>
	<path fill="#43B6CC" stroke="#43B6CC" stroke-width="7" stroke-miterlimit="10" d="M288.548,101.831
		c-29.022,0-56.877,10.365-78.783,29.252c-21.907-18.887-49.76-29.252-78.784-29.252c-66.563,0-120.716,54.153-120.716,120.717
		c0,38.752,18.713,75.249,50.132,97.933c4.83,31.96,17.546,74.522,32.588,108.968c12.751,29.197,31.964,64.004,51.084,64.004
		c29.91,0,37.98-53.963,47.325-116.445c0.666-4.452,1.336-8.932,2.025-13.468c1.111-8.117,8.14-14.24,16.347-14.24
		c8.427,0,15.479,6.308,16.401,14.671c0.019,0.148,0.043,0.295,0.079,0.439c0.668,4.399,1.324,8.792,1.979,13.156
		c9.299,62.185,17.328,115.888,47.234,115.888c19.12,0,38.332-34.806,51.082-64.003c15.044-34.444,27.76-77.009,32.587-108.97
		c31.421-22.684,50.134-59.179,50.134-97.933C409.265,155.984,355.113,101.831,288.548,101.831z M353.91,315.664
		c-0.783,0.552-1.304,1.398-1.44,2.347c-2.308,15.913-6.385,33.6-11.597,51.354H282c-1.92,0-3.477,1.556-3.477,3.477
		c0,1.923,1.557,3.479,3.477,3.479h56.772c-2.007,6.473-4.151,12.923-6.406,19.273H316.5c-1.919,0-3.476,1.556-3.476,3.477
		c0,1.92,1.557,3.476,3.476,3.476h13.341c-16.913,45.468-38.973,83.954-54.378,83.954c-23.916,0-31.902-53.413-40.357-109.963
		c-0.67-4.467-1.342-8.962-2.027-13.466c-0.008-0.063-0.02-0.124-0.033-0.188c-1.454-11.731-11.402-20.538-23.274-20.538
		c-11.666,0-21.654,8.705-23.228,20.198c-0.683,4.489-1.354,8.976-2.021,13.435c-3.865,25.839-7.631,51.023-12.838,70.812h-25.625
		c-1.92,0-3.477,1.557-3.477,3.477c0,1.921,1.557,3.477,3.477,3.477h23.662c-6.016,19.851-13.923,32.757-25.648,32.757
		c-24.888,0-67.145-100.431-77.009-168.487c-0.138-0.947-0.659-1.795-1.441-2.347c-30.309-21.313-48.402-56.123-48.402-93.116
		c0-62.729,51.034-113.764,113.762-113.764c28.335,0,55.485,10.481,76.448,29.514c0.008,0.009,0.017,0.014,0.025,0.021
		c0.006,0.006,0.01,0.013,0.016,0.018c2.77,2.517,5.441,5.195,7.941,7.962c0.688,0.761,1.634,1.146,2.581,1.146
		c0.832,0,1.666-0.295,2.33-0.897c1.424-1.286,1.537-3.484,0.248-4.909c-1.801-1.993-3.689-3.938-5.635-5.819
		c20.549-17.457,46.537-27.035,73.611-27.035c62.73,0,113.766,51.034,113.766,113.764
		C402.313,259.541,384.218,294.351,353.91,315.664z"/>
	<path fill="#43B6CC" stroke="#43B6CC" stroke-width="7" stroke-miterlimit="10" d="M85.751,289.349
		c-24.729-17.391-39.491-45.791-39.491-75.975c0-1.979-1.604-3.583-3.583-3.583c-1.979,0-3.583,1.604-3.583,3.583
		c0,32.515,15.901,63.107,42.537,81.838c0.627,0.44,1.346,0.651,2.058,0.651c1.127,0,2.237-0.529,2.935-1.522
		C87.76,292.723,87.371,290.489,85.751,289.349z"/>
	<path fill="#43B6CC" stroke="#43B6CC" stroke-width="7" stroke-miterlimit="10" d="M336.237,168.724h-17.996v-17.997
		c0-1.98-1.604-3.583-3.585-3.583c-1.979,0-3.582,1.604-3.582,3.583v17.998h-17.997c-1.979,0-3.584,1.604-3.584,3.583
		c0,1.979,1.604,3.583,3.584,3.583h17.997v16.881c0,1.979,1.604,3.583,3.582,3.583c1.979,0,3.585-1.604,3.585-3.583V175.89h17.996
		c1.979,0,3.583-1.604,3.583-3.583S338.217,168.724,336.237,168.724z"/>
	<path fill="#43B6CC" stroke="#43B6CC" stroke-width="7" stroke-miterlimit="10" d="M249.744,402.191
		c0,1.979,1.604,3.584,3.584,3.584h32.583c1.978,0,3.582-1.604,3.582-3.584s-1.604-3.583-3.582-3.583h-32.583
		C251.348,398.608,249.744,400.213,249.744,402.191z"/>
</g>
</svg>
